<mxfile host="Electron" agent="Mozilla/5.0 (Windows NT 10.0; Win64; x64) AppleWebKit/537.36 (KHTML, like Gecko) draw.io/25.0.2 Chrome/128.0.6613.186 Electron/32.2.5 Safari/537.36" version="25.0.2">
  <diagram name="Page-1" id="yjS8IsVVPVVTqkdcIc4E">
    <mxGraphModel dx="1050" dy="621" grid="1" gridSize="10" guides="1" tooltips="1" connect="1" arrows="1" fold="1" page="1" pageScale="1" pageWidth="850" pageHeight="1100" math="0" shadow="0">
      <root>
        <mxCell id="0" />
        <mxCell id="1" parent="0" />
        <mxCell id="CGBErdexgZVhBaHZqOXH-1" value="&lt;b&gt;&lt;i&gt;Do with your&lt;/i&gt;&lt;/b&gt;&lt;div&gt;&lt;b&gt;&lt;i&gt;available&lt;/i&gt;&lt;/b&gt;&lt;/div&gt;" style="rounded=1;whiteSpace=wrap;html=1;" vertex="1" parent="1">
          <mxGeometry x="330" y="180" width="120" height="60" as="geometry" />
        </mxCell>
        <mxCell id="CGBErdexgZVhBaHZqOXH-4" value="&lt;b&gt;&lt;i&gt;Available&lt;/i&gt;&lt;/b&gt;" style="whiteSpace=wrap;html=1;rounded=1;arcSize=50;align=center;verticalAlign=middle;strokeWidth=1;autosize=1;spacing=4;treeFolding=1;treeMoving=1;newEdgeStyle={&quot;edgeStyle&quot;:&quot;entityRelationEdgeStyle&quot;,&quot;startArrow&quot;:&quot;none&quot;,&quot;endArrow&quot;:&quot;none&quot;,&quot;segment&quot;:10,&quot;curved&quot;:1,&quot;sourcePerimeterSpacing&quot;:0,&quot;targetPerimeterSpacing&quot;:0};" vertex="1" parent="1">
          <mxGeometry x="488" y="180" width="100" height="30" as="geometry" />
        </mxCell>
        <mxCell id="CGBErdexgZVhBaHZqOXH-5" value="" style="edgeStyle=entityRelationEdgeStyle;startArrow=none;endArrow=none;segment=10;curved=1;sourcePerimeterSpacing=0;targetPerimeterSpacing=0;rounded=0;" edge="1" target="CGBErdexgZVhBaHZqOXH-4" parent="1">
          <mxGeometry relative="1" as="geometry">
            <mxPoint x="450" y="222" as="sourcePoint" />
          </mxGeometry>
        </mxCell>
        <mxCell id="CGBErdexgZVhBaHZqOXH-6" value="&lt;b&gt;&lt;i&gt;Easy to&lt;/i&gt;&lt;/b&gt;&lt;div&gt;&lt;b&gt;&lt;i&gt;&amp;nbsp;explore&amp;nbsp;&lt;/i&gt;&lt;/b&gt;&lt;/div&gt;" style="whiteSpace=wrap;html=1;shape=mxgraph.basic.oval_callout" vertex="1" parent="1">
          <mxGeometry x="570" y="120" width="100" height="60" as="geometry" />
        </mxCell>
        <mxCell id="CGBErdexgZVhBaHZqOXH-7" value="&lt;b&gt;&lt;i&gt;BMS&lt;/i&gt;&lt;/b&gt;&lt;div&gt;&lt;b&gt;&lt;i&gt;BLUETOOTH&amp;nbsp;&lt;/i&gt;&lt;/b&gt;&lt;/div&gt;&lt;div&gt;&lt;b&gt;&lt;i&gt;WIFI&lt;/i&gt;&lt;/b&gt;&lt;/div&gt;&lt;div&gt;&lt;br&gt;&lt;/div&gt;" style="whiteSpace=wrap;html=1;shape=mxgraph.basic.document" vertex="1" parent="1">
          <mxGeometry x="490" y="260" width="100" height="70" as="geometry" />
        </mxCell>
        <mxCell id="CGBErdexgZVhBaHZqOXH-8" style="edgeStyle=entityRelationEdgeStyle;rounded=0;orthogonalLoop=1;jettySize=auto;html=1;startArrow=none;endArrow=none;segment=10;curved=1;sourcePerimeterSpacing=0;targetPerimeterSpacing=0;exitX=0.5;exitY=1;exitDx=0;exitDy=0;entryX=0.5;entryY=0;entryDx=0;entryDy=0;entryPerimeter=0;" edge="1" parent="1" source="CGBErdexgZVhBaHZqOXH-4" target="CGBErdexgZVhBaHZqOXH-7">
          <mxGeometry relative="1" as="geometry" />
        </mxCell>
        <mxCell id="CGBErdexgZVhBaHZqOXH-9" value="&lt;b&gt;&lt;i&gt;Bluetooth classic&amp;nbsp;&lt;/i&gt;&lt;/b&gt;&lt;div&gt;&lt;b&gt;&lt;i&gt;no mesh&lt;/i&gt;&lt;/b&gt;&lt;/div&gt;" style="whiteSpace=wrap;html=1;shape=mxgraph.basic.rectCallout;dx=30;dy=15;boundedLbl=1;" vertex="1" parent="1">
          <mxGeometry x="680" y="175" width="120" height="70" as="geometry" />
        </mxCell>
        <mxCell id="CGBErdexgZVhBaHZqOXH-10" style="edgeStyle=orthogonalEdgeStyle;rounded=0;orthogonalLoop=1;jettySize=auto;html=1;exitX=1;exitY=0.5;exitDx=0;exitDy=0;exitPerimeter=0;entryX=0;entryY=0;entryDx=15;entryDy=60;entryPerimeter=0;" edge="1" parent="1" source="CGBErdexgZVhBaHZqOXH-7" target="CGBErdexgZVhBaHZqOXH-9">
          <mxGeometry relative="1" as="geometry" />
        </mxCell>
      </root>
    </mxGraphModel>
  </diagram>
</mxfile>
